<svg id="Capa_1" enable-background="new 0 0 512 512" height="512" viewBox="0 0 512 512" width="512" xmlns="http://www.w3.org/2000/svg"><g><path d="m497 445.882h-166.093c16.027-9.408 30.967-20.914 44.455-34.402 41.53-41.53 64.402-96.748 64.402-155.48s-22.871-113.95-64.402-155.48-96.748-64.402-155.48-64.402-113.949 22.872-155.48 64.402c-41.53 41.53-64.402 96.747-64.402 155.48s22.872 113.95 64.402 155.48c41.219 41.218 95.921 64.045 154.16 64.386.107.002.211.016.318.016h278.12c8.284 0 15-6.716 15-15s-6.716-15-15-15zm-467-189.882c0-104.701 85.181-189.882 189.882-189.882s189.882 85.181 189.882 189.882c0 104.702-85.181 189.883-189.882 189.883-104.701-.001-189.882-85.181-189.882-189.883z"/><path d="m146.037 129.793c-29.141 0-52.849 23.708-52.849 52.849s23.708 52.848 52.849 52.848 52.848-23.707 52.848-52.848-23.708-52.849-52.848-52.849zm0 75.697c-12.599 0-22.849-10.249-22.849-22.848s10.25-22.849 22.849-22.849 22.848 10.25 22.848 22.849-10.25 22.848-22.848 22.848z"/><path d="m293.728 235.49c29.141 0 52.848-23.707 52.848-52.848s-23.708-52.849-52.848-52.849-52.849 23.708-52.849 52.849 23.708 52.848 52.849 52.848zm0-75.697c12.599 0 22.848 10.25 22.848 22.849s-10.25 22.848-22.848 22.848-22.849-10.249-22.849-22.848 10.25-22.849 22.849-22.849z"/><path d="m146.037 276.51c-29.141 0-52.849 23.707-52.849 52.848s23.708 52.849 52.849 52.849 52.848-23.708 52.848-52.849-23.708-52.848-52.848-52.848zm0 75.697c-12.599 0-22.849-10.25-22.849-22.849s10.25-22.848 22.849-22.848 22.848 10.249 22.848 22.848-10.25 22.849-22.848 22.849z"/><path d="m293.728 382.207c29.141 0 52.848-23.708 52.848-52.849s-23.708-52.848-52.848-52.848-52.849 23.707-52.849 52.848 23.708 52.849 52.849 52.849zm0-75.697c12.599 0 22.848 10.249 22.848 22.848s-10.25 22.849-22.848 22.849-22.849-10.25-22.849-22.849 10.25-22.848 22.849-22.848z"/></g></svg>